<?xml version="1.0" encoding="utf-8"?>
<!-- Generator: Adobe Illustrator 26.5.0, SVG Export Plug-In . SVG Version: 6.00 Build 0)  -->
<svg version="1.1" id="Layer_1" xmlns="http://www.w3.org/2000/svg" xmlns:xlink="http://www.w3.org/1999/xlink" x="0px" y="0px"
	 viewBox="0 0 512 512" style="enable-background:new 0 0 512 512;" xml:space="preserve">
<style type="text/css">
	.st0{fill:#929497;}
	.st1{fill:#221F1F;}
	.st2{fill:#221E1F;}
</style>
<g id="XMLID_1_">
	<path id="XMLID_5_" class="st0" d="M314.29,284.17c0,0.7-0.56,1.4-1.4,1.4h-26.25c-0.7,0-1.4-0.7-1.4-1.4v-18.95
		c0-0.7,0.56-1.4,1.4-1.4h26.25c0.7,0,1.4,0.56,1.4,1.4V284.17z M313.16,258.21h-26.81c-3.93,0-7.02,3.09-7.02,7.02v19.09
		c0,3.79,3.23,7.02,7.02,7.02h26.81c3.93,0,7.02-3.23,7.02-7.02v-19.09C320.18,261.29,316.95,258.21,313.16,258.21"/>
	<path id="XMLID_6_" class="st1" d="M6.08,229.57c0,0,0,24.14,0,24.56c-0.28,0-5.75,0-6.18,0c0-0.42,0-32.84,0-33.12
		c0.28,0,5.05,0,5.19,0l24.98,24.14c0,0,0-23.86,0-24.14c0.28,0,4.91,0,4.91,0s0.84,0,1.12,0c0,0.42,0,32.84,0,33.12
		c-0.28,0-4.63,0-4.77,0L6.08,229.57"/>
	<path id="XMLID_7_" class="st2" d="M67.55,229.57c0,0,0,24.14,0,24.56c-0.28,0-5.75,0-6.18,0c0-0.42,0-32.84,0-33.12
		c0.28,0,5.05,0,5.19,0l24.84,24.14c0,0,0-23.86,0-24.14c0.28,0,4.91,0,4.91,0s0.84,0,1.12,0c0,0.42,0,32.84,0,33.12
		c-0.28,0-4.63,0-4.77,0L67.55,229.57"/>
	<path id="XMLID_8_" class="st2" d="M195.27,229.57c0,0,0,24.14,0,24.56c-0.28,0-5.75,0-6.18,0c0-0.42,0-32.84,0-33.12
		c0.28,0,5.05,0,5.19,0l24.84,24.14c0,0,0-23.86,0-24.14c0.28,0,4.91,0,4.91,0s0.84,0,1.12,0c0,0.42,0,32.84,0,33.12
		c-0.28,0-4.63,0-4.77,0L195.27,229.57"/>
	<path id="XMLID_9_" class="st2" d="M50.71,221.01c0,0,0.84,0,1.12,0c0,0.42,0,32.84,0,33.12c-0.28,0-5.75,0-6.18,0
		c0-0.42,0-32.84,0-33.12C46.08,221.01,50.71,221.01,50.71,221.01"/>
	<path id="XMLID_10_" class="st2" d="M139.55,221.01c0,0,0.84,0,1.12,0c0,0.28,0,5.47,0,5.75c-0.42,0-14.74,0-14.74,0
		s0,27.09,0,27.51c-0.28,0-6.04,0-6.32,0c0-0.42,0-27.51,0-27.51s-14.46,0-14.74,0c0-0.28,0-5.47,0-5.75
		C105.02,221.01,139.55,221.01,139.55,221.01"/>
	<path id="XMLID_11_" class="st2" d="M178.85,221.01c0,0,0.84,0,1.12,0c0,0.28,0,5.47,0,5.75c-0.42,0-26.39,0-26.39,0v7.44
		c0,0,20.07,0,20.35,0c0,0.42,0,5.33,0,5.75c-0.28,0-20.35,0-20.35,0v8.7c0,0,25.96,0,26.39,0c0,0.28,0,5.33,0,5.75
		c-0.42,0-32,0-32.42,0c0-0.42,0-32.84,0-33.12C147.97,221.01,178.85,221.01,178.85,221.01"/>
	<path id="XMLID_14_" class="st2" d="M259.41,248.52H240.6v-21.75h18.81c5.89,0,8,5.89,8,10.95
		C267.41,242.49,265.3,248.52,259.41,248.52z M269.51,225.78c-2.39-3.23-5.89-4.91-10.25-4.91c0,0-24.28,0-24.56,0
		c0,0.42,0,32.84,0,33.12c0.42,0,24.56,0,24.56,0c4.35,0,7.86-1.68,10.25-4.91c2.25-2.95,3.51-7.02,3.51-11.65
		C273.02,232.8,271.76,228.73,269.51,225.78"/>
	<path id="XMLID_17_" class="st2" d="M314.29,247.12c0,0.7-0.56,1.4-1.4,1.4h-26.25c-0.7,0-1.4-0.7-1.4-1.4v-19.09
		c0-0.7,0.56-1.4,1.4-1.4h26.25c0.7,0,1.4,0.56,1.4,1.4V247.12z M313.16,221.01h-26.81c-3.93,0-7.02,3.09-7.02,7.02v19.09
		c0,3.93,3.23,7.02,7.02,7.02h26.81c3.93,0,7.02-3.09,7.02-7.02v-19.09C320.18,224.1,316.95,221.01,313.16,221.01"/>
	<path id="XMLID_18_" class="st2" d="M424.6,277.29c6.32,2.53,19.79,4.63,30.32,4.63c11.51,0,16.28-3.93,16.28-8.84
		c0-4.49-4.35-7.02-17.12-11.65c-16.98-6.18-29.33-11.23-29.33-22.32c0-11.51,15.02-18.39,37.75-18.39c12.21,0,16.42,0.7,24.28,2.25
		v10.95c-7.58-1.4-14.46-3.93-24.98-3.93c-11.23,0-16.14,3.65-16.14,7.3c0,5.33,7.44,7.86,20.35,12.49
		c18.11,6.46,28.07,11.37,28.07,22.32c0,11.23-12.63,19.37-40.98,19.37c-11.65,0-19.65-0.7-28.63-2.25v-11.93"/>
	<path id="XMLID_21_" class="st2" d="M364.11,230.28h-13.47v51.23h13.47c20.77,0,33.82-8.98,33.82-25.54
		S384.88,230.28,364.11,230.28z M400.46,286.28c-6.74,2.95-19.37,4.91-30.32,4.91H327.9v-70.46h42.25c11.09,0,23.72,1.96,30.46,4.91
		c16.28,7.3,21.61,19.09,21.61,30.32C422.22,267.19,416.74,278.84,400.46,286.28"/>
	<polyline id="XMLID_22_" class="st2" points="498.43,280.66 495.76,280.66 495.76,279.68 502.36,279.68 502.36,280.66 
		499.69,280.66 499.69,288.52 498.43,288.52 498.43,280.66 	"/>
	<path id="XMLID_23_" class="st2" d="M510.78,284.59c0-1.26-0.14-2.67-0.14-3.79l0,0c-0.28,0.98-0.7,2.25-1.12,3.37l-1.54,4.35
		h-0.84l-1.4-4.21c-0.42-1.26-0.7-2.39-0.98-3.51l0,0c0,1.12-0.14,2.67-0.14,3.93l-0.28,3.79h-1.26l0.56-8.84h1.4l1.54,4.21
		c0.42,1.12,0.7,2.11,0.84,2.95l0,0c0.28-0.84,0.56-1.82,0.98-2.95l1.54-4.21h1.4l0.56,8.84h-1.12L510.78,284.59"/>
</g>
</svg>
